<svg width="360" height="514" viewBox="0 0 360 514" fill="none" xmlns="http://www.w3.org/2000/svg">
<rect x="-167.554" y="213.701" width="213.332" height="324.396" rx="20.8933" transform="rotate(-30 -167.554 213.701)" fill="#1D1D1D"/>
<rect x="-145.022" y="219.739" width="180.342" height="291.407" rx="20.8933" transform="rotate(-30 -145.022 219.739)" fill="#312C2C"/>
<rect x="-145.022" y="219.739" width="180.342" height="291.407" rx="20.8933" transform="rotate(-30 -145.022 219.739)" fill="#313131"/>
<rect x="-80.4404" y="204.038" width="104.467" height="46.1852" rx="7.69753" transform="rotate(-30 -80.4404 204.038)" fill="#4A4A4A"/>
<rect x="-54.5986" y="248.797" width="104.467" height="46.1852" rx="7.69753" transform="rotate(-30 -54.5986 248.797)" fill="#4A4A4A"/>
<rect x="-28.757" y="293.557" width="104.467" height="46.1852" rx="7.69753" transform="rotate(-30 -28.757 293.557)" fill="#4A4A4A"/>
<rect x="-47.6744" y="364.158" width="46.1852" height="46.1852" rx="7.69753" transform="rotate(-30 -47.6744 364.158)" fill="#CCFE8E"/>
<rect x="-2.91522" y="338.316" width="104.467" height="46.1852" rx="7.69753" transform="rotate(-30 -2.91522 338.316)" fill="#4A4A4A"/>
<rect x="-21.8327" y="408.917" width="46.1852" height="46.1852" rx="7.69753" transform="rotate(-30 -21.8327 408.917)" fill="#A1FD8E"/>
<rect x="22.9265" y="383.075" width="104.467" height="46.1852" rx="7.69753" transform="rotate(-30 22.9265 383.075)" fill="#4A4A4A"/>
<rect x="156" y="-24.3342" width="213.332" height="324.396" rx="20.8933" transform="rotate(-30 156 -24.3342)" fill="#1D1D1D"/>
<rect x="178.532" y="-18.2967" width="180.342" height="291.407" rx="20.8933" transform="rotate(-30 178.532 -18.2967)" fill="#312C2C"/>
<rect x="178.532" y="-18.2967" width="180.342" height="291.407" rx="20.8933" transform="rotate(-30 178.532 -18.2967)" fill="#313131"/>
<rect x="198.355" y="-8.15527" width="46.1852" height="46.1852" rx="7.69753" transform="rotate(-30 198.355 -8.15527)" fill="#EF8683"/>
<rect x="243.114" y="-33.997" width="104.467" height="46.1852" rx="7.69753" transform="rotate(-30 243.114 -33.997)" fill="#4A4A4A"/>
<rect x="224.196" y="36.6039" width="46.1852" height="46.1852" rx="7.69753" transform="rotate(-30 224.196 36.6039)" fill="#F5C188"/>
<rect x="268.956" y="10.7622" width="104.467" height="46.1852" rx="7.69753" transform="rotate(-30 268.956 10.7622)" fill="#4A4A4A"/>
<rect x="250.038" y="81.3631" width="46.1852" height="46.1852" rx="7.69753" transform="rotate(-30 250.038 81.3631)" fill="#FFFF91"/>
<rect x="294.797" y="55.5214" width="104.467" height="46.1852" rx="7.69753" transform="rotate(-30 294.797 55.5214)" fill="#4A4A4A"/>
<rect x="275.88" y="126.122" width="46.1852" height="46.1852" rx="7.69753" transform="rotate(-30 275.88 126.122)" fill="#CCFE8E"/>
<rect x="320.639" y="100.281" width="104.467" height="46.1852" rx="7.69753" transform="rotate(-30 320.639 100.281)" fill="#4A4A4A"/>
<rect x="301.722" y="170.881" width="46.1852" height="46.1852" rx="7.69753" transform="rotate(-30 301.722 170.881)" fill="#A1FD8E"/>
<rect x="346.481" y="145.04" width="104.467" height="46.1852" rx="7.69753" transform="rotate(-30 346.481 145.04)" fill="#4A4A4A"/>
<rect x="-122" y="58.732" width="345.464" height="525.319" rx="33.8341" transform="rotate(-30 -122 58.732)" fill="#1D1D1D"/>
<rect x="-85.5119" y="68.509" width="292.042" height="471.897" rx="33.8341" transform="rotate(-30 -85.5119 68.509)" fill="#312C2C"/>
<rect x="-85.5119" y="68.509" width="292.042" height="471.897" rx="33.8341" transform="rotate(-30 -85.5119 68.509)" fill="#313131"/>
<rect x="-53.4118" y="84.9317" width="74.7912" height="74.7912" rx="12.4652" transform="rotate(-30 -53.4118 84.9317)" fill="#EF8683"/>
<rect x="19.0701" y="43.0843" width="169.171" height="74.7912" rx="12.4652" transform="rotate(-30 19.0701 43.0843)" fill="#4A4A4A"/>
<rect x="-11.5643" y="157.414" width="74.7912" height="74.7912" rx="12.4652" transform="rotate(-30 -11.5643 157.414)" fill="#F5C188"/>
<rect x="60.9176" y="115.566" width="169.171" height="74.7912" rx="12.4652" transform="rotate(-30 60.9176 115.566)" fill="#4A4A4A"/>
<rect x="30.2831" y="229.896" width="74.7912" height="74.7912" rx="12.4652" transform="rotate(-30 30.2831 229.896)" fill="#FFFF91"/>
<rect x="102.765" y="188.048" width="169.171" height="74.7912" rx="12.4652" transform="rotate(-30 102.765 188.048)" fill="#4A4A4A"/>
<rect x="72.1306" y="302.377" width="74.7912" height="74.7912" rx="12.4652" transform="rotate(-30 72.1306 302.377)" fill="#CCFE8E"/>
<rect x="144.612" y="260.53" width="169.171" height="74.7912" rx="12.4652" transform="rotate(-30 144.612 260.53)" fill="#4A4A4A"/>
<rect x="113.978" y="374.859" width="74.7912" height="74.7912" rx="12.4652" transform="rotate(-30 113.978 374.859)" fill="#A1FD8E"/>
<rect x="186.46" y="333.012" width="169.171" height="74.7912" rx="12.4652" transform="rotate(-30 186.46 333.012)" fill="#4A4A4A"/>
</svg>
