<svg width="376" height="429" viewBox="0 0 376 429" fill="none" xmlns="http://www.w3.org/2000/svg">
<rect x="64.2677" y="26" width="247.465" height="376.299" rx="24.2362" fill="#1D1D1D"/>
<rect x="83.4016" y="45.1339" width="209.197" height="338.031" rx="24.2362" fill="#312C2C"/>
<rect x="83.4016" y="45.1339" width="209.197" height="338.031" rx="24.2362" fill="#313131"/>
<rect x="122.945" y="57.8898" width="130.11" height="198.992" rx="20.4094" fill="#FF4181"/>
<rect x="261.984" y="57.8898" width="88.0157" height="198.992" rx="16.5827" fill="#262424"/>
<rect x="26" y="57.8898" width="88.0157" height="198.992" rx="16.5827" fill="#262424"/>
<rect x="108.913" y="272.189" width="34.4409" height="38.2677" rx="5.10236" fill="#796E6E"/>
<rect x="149.732" y="272.189" width="34.4409" height="38.2677" rx="5.10236" fill="#796E6E"/>
<rect x="190.551" y="272.189" width="34.4409" height="38.2677" rx="5.10236" fill="#796E6E"/>
<rect x="231.37" y="272.189" width="34.4409" height="38.2677" rx="5.10236" fill="#796E6E"/>
<circle cx="84.0394" cy="349.362" r="17.2205" fill="#4F4747"/>
<circle cx="210.323" cy="349.362" r="17.2205" fill="#4F4747"/>
<circle cx="126.134" cy="349.362" r="17.2205" fill="#4F4747"/>
<circle cx="252.417" cy="349.362" r="17.2205" fill="#4F4747"/>
<circle cx="168.228" cy="349.362" r="17.2205" fill="#4F4747"/>
<circle cx="294.512" cy="349.362" r="17.2205" fill="#4F4747"/>
</svg>
